<?xml version="1.0" encoding="UTF-8" standalone="no"?>
<!-- Created with Inkscape (http://www.inkscape.org/) -->

<svg
   width="101.5mm"
   height="101.50001mm"
   viewBox="0 0 101.5 101.5"
   version="1.1"
   id="svg1"
   xml:space="preserve"
   sodipodi:docname="2019_sncf.svg"
   inkscape:version="1.3.1 (1:1.3.1+202311172155+91b66b0783)"
   xmlns:inkscape="http://www.inkscape.org/namespaces/inkscape"
   xmlns:sodipodi="http://sodipodi.sourceforge.net/DTD/sodipodi-0.dtd"
   xmlns="http://www.w3.org/2000/svg"
   xmlns:svg="http://www.w3.org/2000/svg"><sodipodi:namedview
     id="namedview1"
     pagecolor="#ffffff"
     bordercolor="#000000"
     borderopacity="0.25"
     inkscape:showpageshadow="2"
     inkscape:pageopacity="0.0"
     inkscape:pagecheckerboard="0"
     inkscape:deskcolor="#d1d1d1"
     inkscape:document-units="mm"
     inkscape:zoom="1.4895467"
     inkscape:cx="246.04801"
     inkscape:cy="167.50062"
     inkscape:window-width="1920"
     inkscape:window-height="1043"
     inkscape:window-x="0"
     inkscape:window-y="0"
     inkscape:window-maximized="1"
     inkscape:current-layer="layer1" /><defs
     id="defs1"><marker
       markerWidth="0.52499998"
       markerHeight="0.99999994"
       refX="0"
       refY="0"
       orient="auto-start-reverse"
       id="marker2"
       viewBox="0 0 0.525 1"
       inkscape:stockid="Triangle cap"
       style="overflow:visible"
       preserveAspectRatio="xMidYMid"
       inkscape:isstock="true"
       inkscape:collect="always"><path
         style="fill:context-stroke;stroke-linecap:butt"
         d="M 0,-1 1,0 0,1 -0.05,0 Z"
         sodipodi:nodetypes="sssssscsss"
         transform="scale(0.5)"
         id="path2" /></marker><marker
       markerWidth="0.52499998"
       markerHeight="0.99999994"
       refX="0"
       refY="0"
       orient="auto-start-reverse"
       id="CapTriangle"
       viewBox="0 0 0.525 1"
       inkscape:stockid="Triangle cap"
       style="overflow:visible"
       preserveAspectRatio="xMidYMid"
       inkscape:isstock="true"
       inkscape:collect="always"><path
         style="fill:context-stroke;stroke-linecap:butt"
         d="M 0,-1 1,0 0,1 -0.05,0 Z"
         sodipodi:nodetypes="sssssscsss"
         transform="scale(0.5)"
         id="path61" /></marker></defs><g
     inkscape:label="Calque 1"
     inkscape:groupmode="layer"
     id="layer1"
     transform="translate(-18.63827,-47.046361)"><rect
       style="fill:#ffffff;stroke:#ffffff;stroke-width:0.499998"
       id="rect2"
       width="101"
       height="101.00001"
       x="18.888269"
       y="47.29636" /><path
       id="rect1"
       style="fill:#e6e6e6;stroke:none;stroke-width:1"
       d="m 33.030366,37.252218 2.05e-4,75.171152 6.165385,36.46993 33.08647,-11.51568 1.86e-4,5.93483 10.300242,-1.74129 -5e-5,-7.77864 32.017226,-11.14415 3.83266,12.86223 13.14905,-2.22289 -11.05564,-37.101786 22.45551,3.64e-4 -1.57014,-9.287796 -23.65295,2.92e-4 -18.147782,-60.902238 -13.14854,2.222812 17.484802,58.679466 -35.976129,-2.37e-4 -1.92e-4,-55.553165 -10.299731,1.741209 -1.99e-4,53.811659 -15.787328,2.1e-4 1.08e-4,-51.142944 z m 8.853465,58.933729 30.398614,-2.37e-4 -4.1e-5,29.51032 -30.398772,10.5802 z m 40.698736,6.1e-5 24.132023,-4.5e-5 4.73152,15.878967 -28.863328,10.04601 z"
       transform="rotate(9.5953528)" /><path
       style="fill:none;stroke:#00b6db;stroke-width:3;stroke-dasharray:none;stroke-opacity:1;marker-start:url(#CapTriangle);marker-end:url(#marker2)"
       d="m 98.382383,128.97204 -1.881978,-14.60499 c -0.718475,-4.41712 -1.541873,-5.87381 -5.637515,-6.54651 L 53.861021,101.1218 C 48.878902,99.86047 47.972368,99.347415 48.996053,93.775517 L 52.174946,71.36226"
       id="path6"
       sodipodi:nodetypes="cccccc" /><g
       id="g8"
       transform="matrix(1.2044267,0,0,1.2044267,-20.095912,-11.315672)"
       style="stroke-width:0.830271"><path
         id="rect7"
         style="fill:#d40000;fill-opacity:1;stroke:none;stroke-width:0.83027"
         d="m 97.548367,104.45242 c 0,0 2.686633,-1.39623 4.116073,-1.26548 1.36268,0.12464 2.28777,1.68792 3.63989,1.89822 1.21686,0.18926 3.63988,-0.63274 3.63988,-0.63274 v 5.65421 c 0,0 -2.42302,0.822 -3.63988,0.63274 -1.35212,-0.21029 -2.27721,-1.77357 -3.63989,-1.89821 -1.42944,-0.13075 -4.116073,1.26547 -4.116073,1.26547 z"
         sodipodi:nodetypes="cssccsscc" /><rect
         style="fill:#d40000;fill-opacity:1;stroke:none;stroke-width:0.830271;stroke-opacity:1"
         id="rect8"
         width="1.4478468"
         height="11.699544"
         x="97.54837"
         y="105.81203" /></g><path
       d="m 51.521795,59.142414 c -2.202069,0.170437 -4.1565,1.928046 -4.544937,4.104602 -0.25429,1.29483 0.02226,2.679922 0.773049,3.765483 1.407284,2.347211 2.814565,4.694422 4.221849,7.041633 1.540536,-2.576955 3.099213,-5.144263 4.628412,-7.727253 0.919982,-1.932527 0.42527,-4.412911 -1.171016,-5.839663 -1.034971,-0.986775 -2.487801,-1.46439 -3.907357,-1.344802 z m 0.966391,2.389558 c 1.196553,0.261349 1.965885,1.641875 1.540357,2.795631 -0.35872,1.167487 -1.793538,1.824719 -2.906187,1.302394 -1.128929,-0.44218 -1.653537,-1.902187 -1.083382,-2.966309 0.442136,-0.893323 1.482865,-1.365676 2.449212,-1.131716 z"
       id="path134"
       style="fill:#008000;stroke:none;stroke-width:0.0352778"
       sodipodi:nodetypes="ccccccccccccccccscccc" /></g></svg>
