<?xml version="1.0" encoding="UTF-8" standalone="no"?>
<!-- Created with Inkscape (http://www.inkscape.org/) -->

<svg
   version="1.1"
   id="svg1"
   width="300"
   height="300"
   viewBox="0 0 300 300"
   sodipodi:docname="2023_phd.svg"
   inkscape:version="1.3.1 (1:1.3.1+202311172155+91b66b0783)"
   xmlns:inkscape="http://www.inkscape.org/namespaces/inkscape"
   xmlns:sodipodi="http://sodipodi.sourceforge.net/DTD/sodipodi-0.dtd"
   xmlns="http://www.w3.org/2000/svg"
   xmlns:svg="http://www.w3.org/2000/svg">
  <defs
     id="defs1" />
  <sodipodi:namedview
     id="namedview1"
     pagecolor="#ffffff"
     bordercolor="#000000"
     borderopacity="0.25"
     inkscape:showpageshadow="2"
     inkscape:pageopacity="0.0"
     inkscape:pagecheckerboard="0"
     inkscape:deskcolor="#d1d1d1"
     inkscape:zoom="1.3517739"
     inkscape:cx="166.81784"
     inkscape:cy="166.81784"
     inkscape:window-width="1920"
     inkscape:window-height="1043"
     inkscape:window-x="0"
     inkscape:window-y="0"
     inkscape:window-maximized="1"
     inkscape:current-layer="g1">
    <inkscape:page
       x="0"
       y="0"
       inkscape:label="1"
       id="page1"
       width="300"
       height="300"
       margin="0"
       bleed="0" />
  </sodipodi:namedview>
  <g
     id="g1"
     inkscape:groupmode="layer"
     inkscape:label="1"
     transform="translate(-5.9066668,-5.9066668)">
    <path
       id="path1"
       d="M 2.125,2.125 H 231.734 V 231.734 H 2.125 Z"
       style="fill:#f2f2f2;fill-opacity:1;fill-rule:nonzero;stroke:none"
       transform="scale(1.3333333)" />
    <path
       id="path2"
       d="m 1.543,86.867 v 26.692 l 230.773,88.871 v -26.692 z"
       style="fill:#cccccc;fill-opacity:1;fill-rule:nonzero;stroke:none"
       transform="scale(1.3333333)" />
    <path
       id="path3"
       d="M 137.234,15.438 60.699,221.023 85.082,230.102 161.359,25.211 Z"
       style="fill:#cccccc;fill-opacity:1;fill-rule:nonzero;stroke:none"
       transform="scale(1.3333333)" />
    <path
       id="path4"
       d="m 142.406,1.543 -2.57,6.906 24.125,9.778 6.211,-16.684 z"
       style="fill:#cccccc;fill-opacity:1;fill-rule:nonzero;stroke:none"
       transform="scale(1.3333333)" />
    <path
       id="path5"
       d="M 77.82,1.543 232.316,64.152 V 38.742 L 140.531,1.543 Z"
       style="fill:#cccccc;fill-opacity:1;fill-rule:nonzero;stroke:none"
       transform="scale(1.3333333)" />
    <path
       id="path6"
       d="m 1.543,182.832 v 25.191 l 64.035,24.293 h 66.406 z"
       style="fill:#cccccc;fill-opacity:1;fill-rule:nonzero;stroke:none"
       transform="scale(1.3333333)" />
    <path
       id="path7"
       d="M 1.543,1.543 V 33.211 L 17.355,1.543 Z"
       style="fill:#cccccc;fill-opacity:1;fill-rule:nonzero;stroke:none"
       transform="scale(1.3333333)" />
    <g
       id="g40"
       style="fill:#e9c6af;fill-opacity:1">
      <path
         id="path13"
         d="m 84.471,102.819 32.226,-0.001 V 118.32 L 84.47,118.318 Z"
         style="fill:#e9c6af;fill-opacity:1;fill-rule:nonzero;stroke:#d38d5f;stroke-width:0.527968;stroke-linecap:butt;stroke-linejoin:miter;stroke-miterlimit:4;stroke-dasharray:none;stroke-opacity:1"
         transform="matrix(1.3333333,0.52159733,-0.522132,1.333124,0,0)" />
      <path
         id="path14"
         d="m 79.005,118.319 37.692,10e-4 -0.002,28.822 -37.692,-0.001 z"
         style="fill:#e9c6af;fill-opacity:1;fill-rule:nonzero;stroke:#d38d5f;stroke-width:0.527968;stroke-linecap:butt;stroke-linejoin:miter;stroke-miterlimit:4;stroke-dasharray:none;stroke-opacity:1"
         transform="matrix(1.3333333,0.52159733,-0.522132,1.333124,0,0)" />
      <path
         id="path15"
         d="m 87.155,41.173 23.942,0.002 0.001,28.82 -23.941,0.002 z"
         style="fill:#e9c6af;fill-opacity:1;fill-rule:nonzero;stroke:#d38d5f;stroke-width:0.527968;stroke-linecap:butt;stroke-linejoin:miter;stroke-miterlimit:4;stroke-dasharray:none;stroke-opacity:1"
         transform="matrix(1.3333333,0.52159733,-0.522132,1.333124,0,0)" />
      <path
         id="path16"
         d="m 70.427,-18.8 h 40.672 l -0.002,59.975 H 70.425 Z"
         style="fill:#e9c6af;fill-opacity:1;fill-rule:nonzero;stroke:#d38d5f;stroke-width:0.527968;stroke-linecap:butt;stroke-linejoin:miter;stroke-miterlimit:4;stroke-dasharray:none;stroke-opacity:1"
         transform="matrix(1.3333333,0.52159733,-0.522132,1.333124,0,0)" />
      <path
         id="path17"
         d="m 162.401,28.865 34.974,0.003 -0.001,21.695 -34.972,10e-4 z"
         style="fill:#e9c6af;fill-opacity:1;fill-rule:nonzero;stroke:#d38d5f;stroke-width:0.53136;stroke-linecap:butt;stroke-linejoin:miter;stroke-miterlimit:4;stroke-dasharray:none;stroke-opacity:1"
         transform="matrix(1.3333333,0.49596,-0.49596,1.3333333,0,0)" />
      <path
         id="path18"
         d="m 162.401,7.17 34.973,-0.001 0.001,21.699 -34.974,-0.003 z"
         style="fill:#e9c6af;fill-opacity:1;fill-rule:nonzero;stroke:#d38d5f;stroke-width:0.53136;stroke-linecap:butt;stroke-linejoin:miter;stroke-miterlimit:4;stroke-dasharray:none;stroke-opacity:1"
         transform="matrix(1.3333333,0.49596,-0.49596,1.3333333,0,0)" />
      <path
         id="path19"
         d="m 162.402,-14.526 34.972,-10e-4 V 7.169 L 162.401,7.17 Z"
         style="fill:#e9c6af;fill-opacity:1;fill-rule:nonzero;stroke:#d38d5f;stroke-width:0.53136;stroke-linecap:butt;stroke-linejoin:miter;stroke-miterlimit:4;stroke-dasharray:none;stroke-opacity:1"
         transform="matrix(1.3333333,0.49596,-0.49596,1.3333333,0,0)" />
      <path
         id="path20"
         d="m 162.402,50.564 34.972,-10e-4 v 21.695 l -34.972,0.001 z"
         style="fill:#e9c6af;fill-opacity:1;fill-rule:nonzero;stroke:#d38d5f;stroke-width:0.53136;stroke-linecap:butt;stroke-linejoin:miter;stroke-miterlimit:4;stroke-dasharray:none;stroke-opacity:1"
         transform="matrix(1.3333333,0.49596,-0.49596,1.3333333,0,0)" />
      <path
         id="path21"
         d="m 159.873,128.743 34.976,-0.002 -10e-4,21.695 -34.975,0.002 z"
         style="fill:#e9c6af;fill-opacity:1;fill-rule:nonzero;stroke:#d38d5f;stroke-width:0.53136;stroke-linecap:butt;stroke-linejoin:miter;stroke-miterlimit:4;stroke-dasharray:none;stroke-opacity:1"
         transform="matrix(1.3333333,0.49596,-0.49596,1.3333333,0,0)" />
      <path
         id="path22"
         d="m 159.875,107.043 34.974,0.002 v 21.696 l -34.976,0.002 z"
         style="fill:#e9c6af;fill-opacity:1;fill-rule:nonzero;stroke:#d38d5f;stroke-width:0.53136;stroke-linecap:butt;stroke-linejoin:miter;stroke-miterlimit:4;stroke-dasharray:none;stroke-opacity:1"
         transform="matrix(1.3333333,0.49596,-0.49596,1.3333333,0,0)" />
    </g>
    <g
       id="g30"
       style="fill:#f4e3d7;fill-opacity:1">
      <path
         id="path8"
         d="m 194.848,122.112 v 28.324 l 25.231,0.002 4.274,-1.765 0.002,-26.564 z"
         style="fill:#f4e3d7;fill-opacity:1;fill-rule:nonzero;stroke:#d38d5f;stroke-width:0.53136;stroke-linecap:butt;stroke-linejoin:miter;stroke-miterlimit:4;stroke-dasharray:none;stroke-opacity:1"
         transform="matrix(1.3333333,0.49596,-0.49596,1.3333333,0,0)" />
      <path
         id="path9"
         d="m 197.375,39.035 39.011,-0.003 v 33.227 l -39.012,-0.001 z"
         style="fill:#f4e3d7;fill-opacity:1;fill-rule:nonzero;stroke:#d38d5f;stroke-width:0.53136;stroke-linecap:butt;stroke-linejoin:miter;stroke-miterlimit:4;stroke-dasharray:none;stroke-opacity:1"
         transform="matrix(1.3333333,0.49596,-0.49596,1.3333333,0,0)" />
      <path
         id="path10"
         d="m 52.241,102.822 32.23,-0.003 -0.001,15.499 -32.226,0.001 z"
         style="fill:#f4e3d7;fill-opacity:1;fill-rule:nonzero;stroke:#d38d5f;stroke-width:0.527968;stroke-linecap:butt;stroke-linejoin:miter;stroke-miterlimit:4;stroke-dasharray:none;stroke-opacity:1"
         transform="matrix(1.3333333,0.52159733,-0.522132,1.333124,0,0)" />
      <path
         id="path11"
         d="m 202.777,58.891 -12.359,33.226 39.012,14.512 2.886,-7.766 V 69.879 Z"
         style="fill:#f4e3d7;fill-opacity:1;fill-rule:nonzero;stroke:#d38d5f;stroke-width:0.566929;stroke-linecap:butt;stroke-linejoin:miter;stroke-miterlimit:4;stroke-dasharray:none;stroke-opacity:1"
         transform="scale(1.3333333)" />
      <path
         id="path12"
         d="m 36.905,41.175 50.251,0.002 v 23.59 l -50.25,0.001 z"
         style="fill:#f4e3d7;fill-opacity:1;fill-rule:nonzero;stroke:#d38d5f;stroke-width:0.527968;stroke-linecap:butt;stroke-linejoin:miter;stroke-miterlimit:4;stroke-dasharray:none;stroke-opacity:1"
         transform="matrix(1.3333333,0.52159733,-0.522132,1.333124,0,0)" />
      <path
         id="path23"
         d="M 22.664,1.543 15.793,19.078 66.043,38.734 77.789,8.754 59.355,1.543 Z"
         style="fill:#f4e3d7;fill-opacity:1;fill-rule:nonzero;stroke:#d38d5f;stroke-width:0.566929;stroke-linecap:butt;stroke-linejoin:miter;stroke-miterlimit:4;stroke-dasharray:none;stroke-opacity:1"
         transform="scale(1.3333333)" />
      <path
         id="path24"
         d="m 194.849,107.045 29.503,-0.001 0.003,15.065 -29.504,0.002 z"
         style="fill:#f4e3d7;fill-opacity:1;fill-rule:nonzero;stroke:#d38d5f;stroke-width:0.53136;stroke-linecap:butt;stroke-linejoin:miter;stroke-miterlimit:4;stroke-dasharray:none;stroke-opacity:1"
         transform="matrix(1.3333333,0.49596,-0.49596,1.3333333,0,0)" />
      <path
         id="path25"
         d="m 224.352,107.044 29.505,0.001 0.002,15.066 -29.504,-0.002 z"
         style="fill:#f4e3d7;fill-opacity:1;fill-rule:nonzero;stroke:#d38d5f;stroke-width:0.53136;stroke-linecap:butt;stroke-linejoin:miter;stroke-miterlimit:4;stroke-dasharray:none;stroke-opacity:1"
         transform="matrix(1.3333333,0.49596,-0.49596,1.3333333,0,0)" />
      <path
         id="path26"
         d="m 221.867,126.961 -12.359,33.227 22.808,8.488 v -37.824 z"
         style="fill:#f4e3d7;fill-opacity:1;fill-rule:nonzero;stroke:#d38d5f;stroke-width:0.566929;stroke-linecap:butt;stroke-linejoin:miter;stroke-miterlimit:4;stroke-dasharray:none;stroke-opacity:1"
         transform="scale(1.3333333)" />
      <path
         id="path27"
         d="m 173.664,219.727 -4.684,12.589 h 33.586 l 0.602,-1.617 z"
         style="fill:#f4e3d7;fill-opacity:1;fill-rule:nonzero;stroke:#d38d5f;stroke-width:0.566929;stroke-linecap:butt;stroke-linejoin:miter;stroke-miterlimit:4;stroke-dasharray:none;stroke-opacity:1"
         transform="scale(1.3333333)" />
    </g>
    <path
       id="path29"
       d="m 1.1817175,-11.072175 5.2887924,0.002 c 1.2187444,-0.0037 2.1336098,0.260144 2.747297,0.790365 0.6087164,0.525954 0.9124611,1.2563329 0.9108041,2.1976734 0.0016,0.5332006 -0.07188,0.97085 -0.2231867,1.3140831 -0.1540063,0.344368 -0.3325513,0.6227794 -0.538336,0.8363691 -0.2107555,0.2093228 -0.4164976,0.3625155 -0.6187922,0.4634138 -0.2072656,0.096631 -0.3542493,0.1552197 -0.4474881,0.1753338 l -0.00172,0.026147 c 0.1713647,0.02968 0.3540792,0.086368 0.5404718,0.1669343 0.1929294,0.080997 0.3720386,0.2122912 0.5357617,0.3977189 0.166855,0.1777559 0.3014145,0.4072174 0.4059483,0.6937863 0.1122057,0.2897007 0.1669458,0.6543954 0.1646512,1.0875474 3.942e-4,0.6512938 0.05199,1.2429372 0.150521,1.779901 0.0974,0.53426293 0.248192,0.91579436 0.455087,1.14345934 L 8.4772799,-0.00286385 C 8.3273769,-0.23858902 8.2368938,-0.49928385 8.2089624,-0.79262011 8.1864328,-1.0882263 8.173414,-1.3687621 8.1748769,-1.6299607 8.171539,-2.1370142 8.1388796,-2.5777226 8.0780336,-2.9493851 8.0167568,-3.3145107 7.9038471,-3.6134492 7.7381696,-3.8489012 7.5675212,-4.0886201 7.345671,-4.2686885 7.0694871,-4.3814347 6.7910332,-4.4995826 6.4259926,-4.5590998 5.9782011,-4.5584203 L 3.116094,-4.5632776 3.114586,7.5025904e-4 1.1818807,-6.1047758e-4 Z m 1.9371208,5.0332212 3.1884004,-0.00514 c 0.618179,0.00399 1.0873896,-0.1423399 1.404931,-0.4378488 0.3159754,-0.2916731 0.4737449,-0.732958 0.4755782,-1.318453 C 8.1855752,-8.1458733 8.1333357,-8.4289947 8.0337302,-8.6508997 7.9372565,-8.8804765 7.7927128,-9.0580746 7.6066359,-9.183263 7.4259607,-9.3107215 7.2199578,-9.3925802 6.9928938,-9.4338101 6.7642639,-9.4712041 6.5228336,-9.4936854 6.2670369,-9.4974183 l -3.1514497,0.00233 z M 18.905222,4.9892275e-4 17.151007,4.0073962e-4 17.151227,-1.118295 l -0.01534,-0.00626 c -0.223253,0.39888978 -0.549054,0.72011492 -0.977837,0.97021218 -0.426512,0.25549907 -0.862881,0.38167041 -1.301434,0.38164586 -1.06327,-0.004443 -1.828493,-0.26760291 -2.301072,-0.78720833 C 12.088363,-1.0817843 11.855431,-1.8705208 11.855176,-2.9222827 l -0.01005,-5.1057622 1.765019,-0.00444 0.01131,4.927272 c -0.0019,0.7062891 0.130748,1.2034859 0.400267,1.4969923 0.271517,0.2831337 0.649431,0.426221 1.132607,0.4265612 0.370485,-0.00315 0.679049,-0.062903 0.930664,-0.1749936 0.247779,-0.1136563 0.44812,-0.264579 0.597185,-0.454334 0.154468,-0.192025 0.268464,-0.4274222 0.340424,-0.7023559 0.07266,-0.2656959 0.1101,-0.5547228 0.109177,-0.8594089 l -0.0024,-4.6640766 1.769558,0.00636 z M 26.261635,-4.7115461 c -0.01572,-0.2794008 -0.07422,-0.5471786 -0.172809,-0.8044685 -0.103557,-0.2615567 -0.239682,-0.4871823 -0.412212,-0.6784427 -0.165993,-0.1908295 -0.371092,-0.3461589 -0.615296,-0.4659881 -0.237667,-0.1193982 -0.508061,-0.1805541 -0.812747,-0.1796317 -0.304686,9.223e-4 -0.586672,0.055863 -0.845959,0.1648213 -0.253885,0.1066885 -0.472701,0.2590193 -0.660283,0.4554264 -0.181046,0.196838 -0.324594,0.4224088 -0.427945,0.6755774 -0.108321,0.2489018 -0.167207,0.5246973 -0.175092,0.8235507 z m -4.126009,1.1618348 c 0.0043,0.3127888 0.04874,0.6150897 0.139766,0.9073335 0.08606,0.2879769 0.216624,0.5381838 0.391697,0.7506205 0.173508,0.2162726 0.394654,0.3871033 0.659603,0.5109262 0.273756,0.1296557 0.594878,0.1980949 0.963366,0.2053178 0.523963,-9.101e-4 0.943696,-0.1137348 1.256497,-0.337339 0.311666,-0.2263051 0.544818,-0.5562642 0.701021,-0.9937132 l 1.680314,0.00573 c -0.09608,0.421717 -0.255372,0.8064408 -0.480579,1.1553062 -0.219806,0.34659553 -0.493428,0.63318238 -0.818599,0.86516241 -0.320904,0.22700916 -0.680282,0.40027337 -1.079269,0.51709172 -0.399418,0.12335514 -0.816134,0.19042224 -1.252418,0.1957995 -0.628982,5.5194e-4 -1.187972,-0.10457725 -1.681236,-0.31041668 -0.488996,-0.21081031 -0.89892,-0.50569451 -1.234038,-0.87968173 C 21.046632,-1.3315607 20.789725,-1.7765482 20.618701,-2.2894042 20.450808,-2.809932 20.36367,-3.3802838 20.35842,-3.9977588 c -0.0022,-0.5647496 0.0886,-1.1049908 0.274558,-1.6153217 0.191358,-0.5126009 0.452308,-0.9654662 0.788252,-1.360866 0.333243,-0.3942649 0.739325,-0.6983802 1.215977,-0.9177478 0.471681,-0.2236345 1.008372,-0.33794 1.608937,-0.3456175 0.626282,5.831e-4 1.190085,0.1322904 1.691408,0.3951219 0.507861,0.2632624 0.92471,0.6124378 1.254384,1.0490921 0.336211,0.4370851 0.577732,0.936206 0.7311,1.4977936 0.151803,0.5654234 0.184219,1.1492372 0.09995,1.7503064 z m 10.853609,-7.5290597 2.305029,0.01015 2.505222,3.9046937 2.626688,-3.9130177 2.16349,0.0061 -3.649172,5.3214678 3.927874,5.7474505 L 40.504778,-1.80141e-4 37.747967,-4.2313671 34.937447,4.1767854e-4 32.710859,-0.00456063 36.640003,-5.7487531 Z m 0,0"
       style="fill:#000000;fill-opacity:1;fill-rule:nonzero;stroke:none"
       aria-label="Rue X"
       transform="matrix(0.51654403,-1.2292111,1.2292111,0.51654403,150.81213,178.91794)" />
    <path
       id="path41"
       d="M 6.984797,-5.59625e-4 H 0.52776575 C 0.53362513,-0.7798565 0.72112513,-1.4654034 1.0902658,-2.0513409 c 0.375,-0.5859375 0.8789062,-1.0927734 1.5117187,-1.5234375 0.3105469,-0.2255859 0.6328125,-0.4453125 0.9609375,-0.65625 0.3339844,-0.2109375 0.6386719,-0.4365234 0.9140625,-0.6796875 0.28125,-0.2402343 0.5097656,-0.5039062 0.6914063,-0.7851562 0.1787109,-0.2871094 0.2724609,-0.6152344 0.28125,-0.984375 0,-0.1699219 -0.020508,-0.3544922 -0.058594,-0.5507813 -0.041016,-0.1933593 -0.1171875,-0.375 -0.234375,-0.5390625 C 5.0394845,-7.9341534 4.875422,-8.068919 4.6644845,-8.1802471 4.4594064,-8.2974346 4.1898751,-8.3560284 3.8558908,-8.3560284 c -0.3046875,0 -0.5595704,0.064453 -0.7617188,0.1875 -0.2050781,0.1171875 -0.3691406,0.28125 -0.4921875,0.4921875 -0.1171875,0.2109375 -0.2080078,0.4628907 -0.2695312,0.75 -0.055664,0.2900391 -0.087891,0.6035157 -0.09375,0.9375 H 0.703547 c 0,-0.5214843 0.0703125,-1.0078125 0.2109375,-1.453125 0.140625,-0.4453125 0.3457031,-0.8261718 0.6210938,-1.1484375 0.28125,-0.328125 0.6210937,-0.5859375 1.0195312,-0.7734375 0.4042969,-0.1875 0.8730469,-0.28125 1.40625,-0.28125 0.5683594,0 1.0458984,0.099609 1.4296875,0.2929688 0.3896484,0.1875 0.703125,0.4277344 0.9375,0.7148437 0.2402344,0.2900391 0.4130859,0.6035157 0.515625,0.9375 0.099609,0.3369141 0.1523438,0.65625 0.1523438,0.9609375 0,0.3837891 -0.058594,0.7265625 -0.1757813,1.03125 -0.1171875,0.3046875 -0.2783203,0.5859375 -0.4804687,0.84375 -0.1962891,0.2578125 -0.4189454,0.4980469 -0.6679688,0.7148438 -0.2519531,0.2109375 -0.5126953,0.4101562 -0.7851562,0.5976562 -0.2753907,0.1875 -0.5478516,0.3691407 -0.8203125,0.5390625 -0.2666016,0.1728516 -0.5126954,0.3457032 -0.7382813,0.515625 -0.2285156,0.1728516 -0.4277344,0.3515625 -0.5976562,0.5390625 -0.1728516,0.1816407 -0.2900391,0.3720703 -0.3515625,0.5742188 H 6.984797 Z M 8.5433908,-25.058177 h 2.8593752 v -4.160156 h -0.02344 z m 5.5312502,1.21875 H 12.86761 v 2.238281 h -1.464844 v -2.238281 H 7.359797 v -1.523437 l 4.042969,-5.683594 h 1.464844 v 5.988281 h 1.207031 z m 21.832031,-60.454101 c -0.04102,-0.389649 -0.181641,-0.703125 -0.421875,-0.9375 -0.234375,-0.240235 -0.550781,-0.363282 -0.949219,-0.363282 -0.28125,0 -0.524414,0.05273 -0.726562,0.152344 -0.205078,0.102539 -0.375,0.240235 -0.515625,0.410156 -0.140625,0.172852 -0.254883,0.372071 -0.339844,0.597657 -0.08789,0.219726 -0.158203,0.451172 -0.210938,0.691406 -0.04687,0.243164 -0.08203,0.486328 -0.105468,0.726562 -0.02344,0.234375 -0.04687,0.454102 -0.07031,0.65625 l 0.03516,0.03516 c 0.202149,-0.38086 0.486329,-0.66211 0.855469,-0.84375 0.366211,-0.1875 0.761719,-0.28125 1.183594,-0.28125 0.46875,0 0.884766,0.08203 1.253906,0.246093 0.366211,0.164063 0.679688,0.386719 0.9375,0.667969 0.257813,0.28125 0.451172,0.618164 0.585938,1.007813 0.131836,0.383789 0.199218,0.802734 0.199218,1.253906 0,0.462891 -0.07617,0.887695 -0.222656,1.277344 -0.149414,0.392578 -0.363281,0.735351 -0.644531,1.03125 -0.275391,0.290039 -0.606445,0.515625 -0.996094,0.679687 -0.383789,0.155274 -0.808594,0.234375 -1.277344,0.234375 -0.697265,0 -1.265625,-0.128906 -1.710937,-0.386719 -0.445313,-0.257812 -0.796875,-0.609375 -1.054688,-1.054687 -0.251953,-0.445313 -0.427734,-0.963867 -0.527343,-1.558594 -0.102539,-0.600586 -0.152344,-1.248047 -0.152344,-1.945312 0,-0.5625 0.05859,-1.13086 0.175781,-1.710938 0.123047,-0.577148 0.328125,-1.101562 0.609375,-1.570312 0.28125,-0.46875 0.647461,-0.84961 1.101563,-1.148438 0.451172,-0.304687 1.010742,-0.457031 1.675781,-0.457031 0.380859,0 0.738281,0.06738 1.066406,0.199219 0.333985,0.125976 0.632813,0.301757 0.890625,0.527343 0.257813,0.219727 0.462891,0.489258 0.621094,0.808594 0.164062,0.313477 0.251953,0.665039 0.269531,1.054688 z m -1.488281,5.964843 c 0.28125,0 0.521484,-0.05273 0.726562,-0.164062 0.210938,-0.117188 0.386719,-0.263672 0.527344,-0.445313 0.140625,-0.178711 0.240234,-0.386718 0.304687,-0.621093 0.07031,-0.240235 0.105469,-0.492188 0.105469,-0.75 0,-0.249024 -0.03516,-0.492188 -0.105469,-0.726563 -0.06445,-0.234375 -0.164062,-0.436523 -0.304687,-0.609375 -0.140625,-0.178711 -0.316406,-0.319336 -0.527344,-0.421875 -0.205078,-0.108398 -0.445312,-0.164062 -0.726562,-0.164062 -0.275391,0 -0.521485,0.05273 -0.738282,0.152343 -0.210937,0.102539 -0.386718,0.243164 -0.527343,0.421875 -0.140625,0.172852 -0.251953,0.375 -0.328125,0.609375 -0.07031,0.234375 -0.105469,0.480469 -0.105469,0.738282 0,0.266601 0.03516,0.515625 0.105469,0.75 0.07617,0.234375 0.1875,0.445312 0.328125,0.632812 0.140625,0.181641 0.316406,0.325195 0.527343,0.433594 0.216797,0.111328 0.462891,0.164062 0.738282,0.164062 z m 8.041992,-29.033205 c -0.416016,0 -0.767578,0.12598 -1.054688,0.375 -0.28125,0.25196 -0.421875,0.60645 -0.421875,1.06641 0,0.4541 0.134766,0.80273 0.410157,1.04297 0.28125,0.23437 0.635742,0.35156 1.066406,0.35156 0.436523,0 0.791016,-0.11719 1.066406,-0.35156 0.28125,-0.24024 0.421875,-0.58887 0.421875,-1.04297 0,-0.45996 -0.146484,-0.81445 -0.433594,-1.06641 -0.290039,-0.24902 -0.641601,-0.375 -1.054687,-0.375 z m 0,8.613284 c -0.477539,0 -0.922852,-0.06738 -1.335938,-0.199219 -0.407226,-0.131836 -0.758789,-0.328125 -1.054687,-0.585938 -0.298828,-0.257812 -0.527344,-0.568357 -0.691406,-0.937497 -0.164063,-0.375 -0.246094,-0.78809 -0.246094,-1.24219 0,-0.5918 0.152344,-1.09277 0.457031,-1.5 0.310547,-0.4043 0.732422,-0.67383 1.265625,-0.80859 v -0.0352 c -0.430664,-0.15527 -0.761719,-0.40137 -0.996094,-0.73828 -0.228515,-0.34277 -0.339843,-0.74121 -0.339843,-1.19531 0,-0.81153 0.251953,-1.44434 0.761718,-1.89844 0.506836,-0.45996 1.233399,-0.69141 2.179688,-0.69141 0.943359,0 1.669922,0.23145 2.179687,0.69141 0.506836,0.4541 0.761719,1.08691 0.761719,1.89844 0,0.4541 -0.114258,0.85254 -0.339844,1.19531 -0.228515,0.33691 -0.55957,0.58301 -0.996093,0.73828 v 0.0352 c 0.530273,0.13476 0.952148,0.40429 1.265625,0.80859 0.310547,0.40723 0.46875,0.9082 0.46875,1.5 0,0.4541 -0.08789,0.86719 -0.257813,1.24219 -0.164062,0.36914 -0.395508,0.679685 -0.691406,0.937497 -0.298828,0.257813 -0.65332,0.454102 -1.066406,0.585938 -0.407227,0.131836 -0.84961,0.199219 -1.324219,0.199219 z m 0,-1.21875 c 0.515625,0 0.94043,-0.152344 1.277344,-0.457034 0.342773,-0.30469 0.515625,-0.73242 0.515625,-1.28906 0,-0.52148 -0.172852,-0.92871 -0.515625,-1.21875 -0.336914,-0.2959 -0.761719,-0.44531 -1.277344,-0.44531 -0.509766,0 -0.93457,0.14941 -1.277344,0.44531 -0.345703,0.29004 -0.515625,0.69727 -0.515625,1.21875 0,0.55664 0.169922,0.98437 0.515625,1.28906 0.342774,0.30469 0.767578,0.457034 1.277344,0.457034 z m 9.662109,-50.247074 c 0.328125,0 0.644532,-0.0264 0.949219,-0.082 0.304688,-0.0527 0.577148,-0.14355 0.820313,-0.26953 0.249023,-0.12305 0.45996,-0.28418 0.632812,-0.48047 0.178711,-0.20215 0.295898,-0.44531 0.351563,-0.72656 h 1.253906 v 9.44531 h -1.6875 v -6.66797 h -2.320313 z m 13.019532,7.88672 h -6.457032 c 0.0059,-0.77929 0.19336,-1.46484 0.5625,-2.05078 0.375,-0.58594 0.878907,-1.09277 1.511719,-1.52344 0.310547,-0.22558 0.632813,-0.44531 0.960938,-0.65625 0.333984,-0.21093 0.638671,-0.43652 0.914062,-0.67968 0.28125,-0.24024 0.509766,-0.50391 0.691406,-0.78516 0.178711,-0.28711 0.272461,-0.61523 0.28125,-0.98438 0,-0.16992 -0.02051,-0.35449 -0.05859,-0.55078 -0.04102,-0.19336 -0.117188,-0.375 -0.234375,-0.53906 -0.117188,-0.16406 -0.28125,-0.29883 -0.492188,-0.41016 -0.205078,-0.11718 -0.474609,-0.17578 -0.808594,-0.17578 -0.304687,0 -0.55957,0.0645 -0.761718,0.1875 -0.205079,0.11719 -0.369141,0.28125 -0.492188,0.49219 -0.117187,0.21094 -0.208008,0.46289 -0.269531,0.75 -0.05566,0.29004 -0.08789,0.60352 -0.09375,0.9375 h -1.535156 c 0,-0.52148 0.07031,-1.00781 0.210937,-1.45312 0.140625,-0.44532 0.345703,-0.82618 0.621094,-1.14844 0.28125,-0.32813 0.621094,-0.58594 1.019531,-0.77344 0.404297,-0.1875 0.873047,-0.28125 1.40625,-0.28125 0.568359,0 1.045898,0.0996 1.429688,0.29297 0.389648,0.1875 0.703125,0.42773 0.9375,0.71484 0.240234,0.29004 0.413085,0.60352 0.515625,0.9375 0.09961,0.33692 0.152343,0.65625 0.152343,0.96094 0,0.38379 -0.05859,0.72656 -0.175781,1.03125 -0.117187,0.30469 -0.27832,0.58594 -0.480469,0.84375 -0.196289,0.25781 -0.418945,0.49805 -0.667968,0.71484 -0.251954,0.21094 -0.512696,0.41016 -0.785157,0.59766 -0.27539,0.1875 -0.547851,0.36914 -0.820312,0.53906 -0.266602,0.17285 -0.512696,0.34571 -0.738281,0.51563 -0.228516,0.17285 -0.427735,0.35156 -0.597657,0.53906 -0.172851,0.18164 -0.290039,0.37207 -0.351562,0.57422 h 4.605469 z m -104.715821,-25.98926 h 6.46875 v 1.27735 c -0.492187,0.55664 -0.943359,1.13379 -1.347656,1.73437 -0.407227,0.60352 -0.761719,1.23926 -1.066406,1.91016 -0.298828,0.66504 -0.539063,1.37109 -0.726563,2.12109 -0.1875,0.75 -0.316406,1.55274 -0.386718,2.40235 h -1.6875 c 0.05273,-0.75 0.18164,-1.48828 0.386718,-2.21485 0.202149,-0.72656 0.462891,-1.42968 0.785157,-2.10937 0.319335,-0.68555 0.691406,-1.34766 1.113281,-1.98047 0.421875,-0.63281 0.873047,-1.22168 1.359375,-1.76953 h -4.898438 z m -7.87207,47.66309 h 4.886719 v 1.37109 h -3.738282 l -0.492187,2.40235 0.02344,0.0234 c 0.210938,-0.22559 0.47461,-0.40137 0.796875,-0.52735 0.319336,-0.12305 0.635743,-0.1875 0.949219,-0.1875 0.46875,0 0.884766,0.082 1.253906,0.2461 0.366211,0.1582 0.673829,0.375 0.925782,0.65625 0.257812,0.28125 0.448242,0.61816 0.574218,1.00781 0.131836,0.38379 0.199219,0.80273 0.199219,1.2539 0,0.375 -0.06445,0.76758 -0.1875,1.17188 -0.117187,0.39844 -0.310547,0.76172 -0.574219,1.08984 -0.266601,0.32813 -0.606445,0.59766 -1.019531,0.8086 -0.416015,0.21093 -0.908203,0.3164 -1.476562,0.3164 -0.462891,0 -0.887696,-0.0645 -1.277344,-0.1875 -0.392578,-0.11718 -0.735352,-0.2959 -1.03125,-0.53906 -0.298828,-0.24023 -0.536133,-0.53906 -0.714844,-0.89062 -0.172851,-0.35743 -0.269531,-0.77637 -0.292969,-1.25391 h 1.546875 c 0.03809,0.50976 0.210938,0.90234 0.515625,1.18359 0.310547,0.27539 0.717774,0.41016 1.21875,0.41016 0.328125,0 0.600586,-0.0527 0.820313,-0.16406 0.225586,-0.1084 0.410156,-0.25782 0.550781,-0.44532 0.140625,-0.1875 0.237305,-0.40429 0.292969,-0.65625 0.06152,-0.25781 0.09375,-0.53027 0.09375,-0.82031 0,-0.25781 -0.03516,-0.5039 -0.105469,-0.73828 -0.07031,-0.24023 -0.18164,-0.45117 -0.328125,-0.63281 -0.140625,-0.17871 -0.328125,-0.32227 -0.5625,-0.4336 -0.228515,-0.10839 -0.492187,-0.16406 -0.796875,-0.16406 -0.328125,0 -0.632812,0.0644 -0.914062,0.1875 -0.28125,0.11719 -0.486328,0.3457 -0.609375,0.67969 h -1.546875 z m -32.551758,78.193359 c 0.328125,0 0.644531,-0.02637 0.949219,-0.08203 0.304687,-0.05273 0.577148,-0.143554 0.820312,-0.269531 0.249024,-0.123047 0.459961,-0.28418 0.632813,-0.480469 0.178711,-0.202148 0.295898,-0.445312 0.351562,-0.726562 h 1.253907 v 9.445312 h -1.6875 v -6.667969 h -2.320313 z m 13.892578,-18.735351 c 0.249024,0.0088 0.498047,-0.01172 0.75,-0.05859 0.249024,-0.04687 0.47168,-0.123047 0.667969,-0.234375 0.202148,-0.108398 0.363281,-0.260742 0.480469,-0.457031 0.123047,-0.202149 0.1875,-0.448242 0.1875,-0.738281 0,-0.404297 -0.137696,-0.729493 -0.410156,-0.972657 -0.275391,-0.240234 -0.626954,-0.363281 -1.054688,-0.363281 -0.275391,0 -0.512695,0.05566 -0.714844,0.164063 -0.196289,0.111328 -0.360351,0.257812 -0.492187,0.445312 -0.125977,0.181641 -0.219727,0.386719 -0.28125,0.621094 -0.06445,0.228516 -0.09082,0.462891 -0.08203,0.703125 h -1.535157 c 0.01465,-0.459961 0.09668,-0.884766 0.246094,-1.277344 0.155273,-0.389648 0.366211,-0.729492 0.632813,-1.019531 0.263671,-0.287109 0.585937,-0.515625 0.960937,-0.679688 0.380859,-0.164062 0.811523,-0.246093 1.289063,-0.246093 0.36621,0 0.726562,0.05566 1.078125,0.164062 0.357421,0.111328 0.679687,0.269531 0.960937,0.480469 0.287109,0.205078 0.518555,0.46582 0.691406,0.785156 0.169922,0.322266 0.257813,0.688477 0.257813,1.101563 0,0.477539 -0.111328,0.896484 -0.328125,1.253906 -0.219727,0.351562 -0.559571,0.609375 -1.019531,0.773437 v 0.02344 c 0.544921,0.111328 0.966796,0.380859 1.265625,0.808594 0.304687,0.421875 0.457031,0.943359 0.457031,1.558593 0,0.445313 -0.09082,0.84961 -0.269531,1.207032 -0.181641,0.351562 -0.427735,0.65332 -0.738282,0.902343 -0.304687,0.251954 -0.662109,0.442383 -1.066406,0.574219 -0.398437,0.131836 -0.826172,0.199219 -1.277344,0.199219 -0.547851,0 -1.02832,-0.0791 -1.441406,-0.234375 -0.407227,-0.155274 -0.74707,-0.37793 -1.019531,-0.667969 -0.275391,-0.287109 -0.486328,-0.635742 -0.632813,-1.042969 -0.140625,-0.404296 -0.216797,-0.855468 -0.222656,-1.347656 h 1.535156 c -0.01758,0.580078 0.123047,1.060547 0.421875,1.441406 0.304688,0.383789 0.75586,0.574219 1.359375,0.574219 0.515625,0 0.94336,-0.143555 1.289063,-0.433594 0.342773,-0.295898 0.515625,-0.714843 0.515625,-1.253906 0,-0.375 -0.07031,-0.667969 -0.210938,-0.878906 -0.140625,-0.216797 -0.328125,-0.380859 -0.5625,-0.492188 -0.234375,-0.117187 -0.500976,-0.1875 -0.796875,-0.210937 -0.290039,-0.0293 -0.585937,-0.03809 -0.890625,-0.02344 z M 44.045344,-128.61384 c 0.328125,0 0.644531,-0.0264 0.949219,-0.082 0.304687,-0.0527 0.577148,-0.14356 0.820312,-0.26953 0.249024,-0.12305 0.459961,-0.28418 0.632813,-0.48047 0.178711,-0.20215 0.295898,-0.44531 0.351562,-0.72656 h 1.253906 v 9.44531 h -1.6875 v -6.66797 h -2.320312 z m 9.785156,-1.75781 c 0.679688,0 1.230469,0.1582 1.652344,0.46875 0.427734,0.31347 0.761719,0.71191 0.996094,1.19531 0.240234,0.47754 0.404296,1.00488 0.492187,1.58203 0.08496,0.58008 0.128906,1.13672 0.128906,1.67578 0,0.53906 -0.04395,1.09863 -0.128906,1.67578 -0.08789,0.57129 -0.251953,1.09864 -0.492187,1.58203 -0.234375,0.48633 -0.56836,0.88477 -0.996094,1.19532 -0.421875,0.30468 -0.972656,0.45703 -1.652344,0.45703 -0.673828,0 -1.224609,-0.15235 -1.652344,-0.45703 -0.430664,-0.31055 -0.767578,-0.70899 -1.007812,-1.19532 -0.234375,-0.48339 -0.395508,-1.01074 -0.480469,-1.58203 -0.08789,-0.57715 -0.128906,-1.13672 -0.128906,-1.67578 0,-0.53906 0.04102,-1.0957 0.128906,-1.67578 0.08496,-0.57715 0.246094,-1.10449 0.480469,-1.58203 0.240234,-0.4834 0.577148,-0.88184 1.007812,-1.19531 0.427735,-0.31055 0.978516,-0.46875 1.652344,-0.46875 z m 0,8.55468 c 0.333984,0 0.612305,-0.0967 0.832031,-0.29296 0.225586,-0.19336 0.404297,-0.45704 0.539063,-0.78516 0.131836,-0.32813 0.225586,-0.70899 0.28125,-1.14844 0.05273,-0.44531 0.08203,-0.91406 0.08203,-1.40625 0,-0.49805 -0.0293,-0.96387 -0.08203,-1.39453 -0.05566,-0.43652 -0.149414,-0.82324 -0.28125,-1.16016 -0.134766,-0.33398 -0.313477,-0.59765 -0.539063,-0.78515 -0.219726,-0.19336 -0.498047,-0.29297 -0.832031,-0.29297 -0.345703,0 -0.626953,0.0996 -0.84375,0.29297 -0.219726,0.1875 -0.395508,0.45117 -0.527344,0.78515 -0.125976,0.33692 -0.216797,0.72364 -0.269531,1.16016 -0.05566,0.43066 -0.08203,0.89648 -0.08203,1.39453 0,0.49219 0.02637,0.96094 0.08203,1.40625 0.05273,0.43945 0.143555,0.82031 0.269531,1.14844 0.131836,0.32812 0.307618,0.5918 0.527344,0.78516 0.216797,0.19628 0.498047,0.29296 0.84375,0.29296 z m 0,0"
       style="fill:#000000;fill-opacity:1;fill-rule:nonzero;stroke:none"
       aria-label="2&#10;4&#10;6&#10;8&#10;12&#10;7&#10;5&#10;1&#10;3&#10;10"
       transform="matrix(1.3333333,0,0,1.3333333,163.62444,280.38356)" />
  </g>
</svg>
